<svg width="16" height="16" viewBox="0 0 16 16" fill="none" xmlns="http://www.w3.org/2000/svg">
<path fill-rule="evenodd" clip-rule="evenodd" d="M10.7145 14H11.5716V7.9571C12.5496 7.75849 13.2857 6.89378 13.2857 5.85714C13.2857 4.82051 12.5496 3.95579 11.5716 3.75718V2.00001H10.7145V3.75712C9.73627 3.9556 9 4.82039 9 5.85714C9 6.8939 9.73627 7.75869 10.7145 7.95717V14ZM12.2857 5.85714C12.2857 5.22596 11.774 4.71428 11.1429 4.71428C10.5117 4.71428 10 5.22596 10 5.85714C10 6.48833 10.5117 7 11.1429 7C11.774 7 12.2857 6.48833 12.2857 5.85714ZM4.71445 2H5.5716V8.0429C6.54962 8.24151 7.28571 9.10622 7.28571 10.1429C7.28571 11.1795 6.54962 12.0442 5.5716 12.2428V14H4.71445V12.2429C3.73627 12.0444 3 11.1796 3 10.1429C3 9.1061 3.73627 8.24131 4.71445 8.04283V2ZM6.28571 10.1429C6.28571 10.774 5.77404 11.2857 5.14286 11.2857C4.51167 11.2857 4 10.774 4 10.1429C4 9.51167 4.51167 9 5.14286 9C5.77404 9 6.28571 9.51167 6.28571 10.1429Z" fill="white"/>
</svg>
