<svg width="32" height="32" viewBox="0 0 32 32" fill="none" xmlns="http://www.w3.org/2000/svg">
<rect y="32" width="32" height="2" rx="1" transform="rotate(-90 0 32)" fill="#C4C4C4"/>
<rect x="30" y="32" width="32" height="2" rx="1" transform="rotate(-90 30 32)" fill="#C4C4C4"/>
<path d="M2.29289 15.2929C1.90237 15.6834 1.90237 16.3166 2.29289 16.7071L8.65685 23.0711C9.04738 23.4616 9.68054 23.4616 10.0711 23.0711C10.4616 22.6805 10.4616 22.0474 10.0711 21.6569L4.41421 16L10.0711 10.3431C10.4616 9.95262 10.4616 9.31946 10.0711 8.92893C9.68054 8.53841 9.04738 8.53841 8.65685 8.92893L2.29289 15.2929ZM29.7071 16.7071C30.0976 16.3166 30.0976 15.6834 29.7071 15.2929L23.3431 8.92893C22.9526 8.53841 22.3195 8.53841 21.9289 8.92893C21.5384 9.31946 21.5384 9.95262 21.9289 10.3431L27.5858 16L21.9289 21.6569C21.5384 22.0474 21.5384 22.6805 21.9289 23.0711C22.3195 23.4616 22.9526 23.4616 23.3431 23.0711L29.7071 16.7071ZM3 17L29 17V15L3 15V17Z" fill="#18A0FB"/>
</svg>
