<svg width="32" height="32" viewBox="0 0 32 32" fill="none" xmlns="http://www.w3.org/2000/svg">
<rect width="32" height="2" rx="1" fill="#C4C4C4"/>
<rect y="30" width="32" height="2" rx="1" fill="#C4C4C4"/>
<path d="M16.7071 2.29289C16.3166 1.90237 15.6834 1.90237 15.2929 2.29289L8.92893 8.65685C8.53841 9.04738 8.53841 9.68054 8.92893 10.0711C9.31946 10.4616 9.95262 10.4616 10.3431 10.0711L16 4.41421L21.6569 10.0711C22.0474 10.4616 22.6805 10.4616 23.0711 10.0711C23.4616 9.68054 23.4616 9.04738 23.0711 8.65685L16.7071 2.29289ZM15.2929 29.7071C15.6834 30.0976 16.3166 30.0976 16.7071 29.7071L23.0711 23.3431C23.4616 22.9526 23.4616 22.3195 23.0711 21.9289C22.6805 21.5384 22.0474 21.5384 21.6569 21.9289L16 27.5858L10.3431 21.9289C9.95262 21.5384 9.31946 21.5384 8.92893 21.9289C8.53841 22.3195 8.53841 22.9526 8.92893 23.3431L15.2929 29.7071ZM15 3L15 29H17L17 3L15 3Z" fill="#18A0FB"/>
</svg>
